<svg id="Capa_1" enable-background="new 0 0 512 512" height="512" viewBox="0 0 512 512" width="512" xmlns="http://www.w3.org/2000/svg" xmlns:xlink="http://www.w3.org/1999/xlink"><linearGradient id="SVGID_1_" gradientUnits="userSpaceOnUse" x1="256" x2="256" y1="512" y2="0"><stop offset="0" stop-color="#00b59c"/><stop offset="1" stop-color="#9cffac"/></linearGradient><g><g><path d="m239.735 420.061c-85.363-7.596-149.735-78.126-149.735-164.061 0-55.902 27.813-107.708 73.379-138.161l19.621 26.161c7.566 10.087 23.494 6.869 26.552-5.362l30-120c1.12-4.481.113-9.229-2.729-12.869-2.843-3.641-7.204-5.769-11.823-5.769h-120c-12.332 0-19.409 14.122-12 24l16.236 21.649c-66.638 46.619-109.236 124.424-109.236 210.351 0 129.214 96.178 236.607 221.717 252.903 7.513.978 14.629-3.818 16.483-11.237l14.757-59.027c2.234-8.935-4.049-17.762-13.222-18.578zm-27.303 56.987c-104.89-20.017-182.432-112.784-182.432-221.048 0-78.923 41.619-153.147 108.614-193.707 7.59-4.594 9.549-14.743 4.232-21.832l-7.846-10.461h70.789l-17.697 70.788-8.894-11.858c-4.504-6.006-12.755-7.756-19.312-4.097-61.612 34.397-99.886 99.984-99.886 171.167 0 95.31 68.535 175.156 159.789 191.62zm299.568-221.048c0-129.207-96.171-236.606-221.717-252.903-7.551-.984-14.637 3.851-16.483 11.237l-14.758 59.026c-2.233 8.934 4.048 17.763 13.223 18.579 85.363 7.596 149.735 78.126 149.735 164.061 0 55.902-27.813 107.708-73.379 138.161l-19.621-26.161c-7.564-10.085-23.494-6.872-26.552 5.362l-30 120c-2.288 9.152 4.504 18.638 14.657 18.638h119.895c12.332 0 19.409-14.122 12-24l-16.236-21.649c66.638-46.62 109.236-124.424 109.236-210.351zm-138.615 193.707c-7.589 4.594-9.548 14.743-4.231 21.832l7.846 10.461h-70.787l17.698-70.786 8.892 11.856c4.506 6.007 12.759 7.758 19.312 4.097 61.612-34.397 99.885-99.984 99.885-171.167 0-95.31-68.535-175.156-159.789-191.62l7.357-29.428c104.901 20.009 182.432 112.777 182.432 221.048 0 78.924-41.619 153.147-108.615 193.707zm-72.385-163.707c0-34.619-25.977-40.858-41.497-44.585-16.601-3.987-18.503-5.572-18.503-15.415 0-8.271 6.729-15 15-15 4.763 0 9.14 2.19 12.008 6.008 4.977 6.623 14.377 7.958 21.002 2.983 6.623-4.976 7.959-14.379 2.982-21.002-5.362-7.138-12.733-12.444-20.993-15.38v-17.609c0-8.284-6.716-15-15-15s-15 6.716-15 15v17.58c-17.459 6.192-30 22.865-30 42.42 0 34.619 25.977 40.858 41.497 44.585 16.602 3.987 18.504 5.572 18.504 15.415 0 8.271-6.729 15-15 15-4.763 0-9.14-2.19-12.008-6.008-4.977-6.623-14.38-7.96-21.002-2.983-6.624 4.976-7.959 14.379-2.983 21.002 5.363 7.138 12.734 12.444 20.994 15.38v17.609c0 8.284 6.716 15 15 15s15-6.716 15-15v-17.58c17.458-6.192 29.999-22.865 29.999-42.42z" fill="url(#SVGID_1_)"/></g></g></svg>