<svg id="Capa_1" enable-background="new 0 0 511.556 511.556" height="512" viewBox="0 0 511.556 511.556" width="512" xmlns="http://www.w3.org/2000/svg"><g><g><path d="m79.393 503.207h-52.322c-10.809 0-19.571-8.762-19.571-19.571v-219.065c0-10.809 8.762-19.571 19.571-19.571h52.322c10.809 0 19.571 8.762 19.571 19.571v219.064c0 10.809-8.762 19.572-19.571 19.572z" fill="#57be92"/></g><g><path d="m98.967 264.573v219.061c0 10.814-8.765 19.569-19.579 19.569h-19.898c10.814 0 19.579-8.755 19.579-19.569v-219.061c0-10.814-8.765-19.569-19.579-19.569h19.897c10.815-.001 19.58 8.754 19.58 19.569z" fill="#09a76d"/></g><g><path d="m266.028 273.895s-2.435-7.495-3.5-9.771c-2.315-4.943-3.215-10.435-2.508-15.847 1.581-12.107 1.999-24.458 2.361-36.048.597-19.115-1.737-41.08-14.857-56.002-10.741-12.216-26.515-19.305-42.789-19.2-6.28.041-11.291 5.28-11.291 11.56v33.312c0 25.777-4.752 54.98-21.457 75.558-22.081 27.199-41.831 23.525-73.022 23.57v183.781h17.64c6.673 0 13.122 2.304 18.343 6.46 8.514 6.777 25.146 24.255 50.705 24.255h159.392v-221.628z" fill="#fed2a4"/></g><g><g><g><path d="m204.734 137.028c16.275-.105 32.048 6.983 42.789 19.2 13.12 14.922 15.455 36.887 14.857 56.002-.362 11.59-.78 23.941-2.361 36.048-.707 5.413.193 10.904 2.508 15.847.668 1.427 1.874 4.904 2.681 7.3 1.427 4.238 2.463 9.313 2.668 13.773.356 7.726-.881 16.687-5.247 26.392 0 0-8.109 18.344-30.529 28.294-8.128 3.607-17.373-.823-17.841-10.081-.169-3.336 1.066-6.489 3.265-8.937 4.112-4.579 10.251-6.6 14.759-10.693 6.055-5.499 10.02-12.631 9.928-20.961-.07-6.308-1.663-12.542-3.928-18.399-1.91-4.94-3.877-9.919-4.311-15.249-.267-3.28.145-6.696.538-9.949.755-6.248 2.067-12.429 2.386-18.726.418-8.241-.241-16.521-1.756-24.626-3.029-16.203-9.412-31.78-18.162-45.724z" fill="#ffbd86"/></g></g></g><g><path d="m406.52 20.143 19.613 39.741c3.082 6.244 9.039 10.573 15.93 11.574l43.857 6.373c17.354 2.522 24.283 23.848 11.726 36.088l-31.735 30.934c-4.986 4.861-7.262 11.864-6.085 18.727l7.492 43.679c2.964 17.283-15.177 30.464-30.698 22.303l-39.227-20.623c-6.164-3.24-13.527-3.24-19.691 0l-39.227 20.623c-15.522 8.16-33.662-5.02-30.698-22.303l7.492-43.679c1.177-6.863-1.098-13.866-6.085-18.727l-31.735-30.934c-12.557-12.24-5.628-33.566 11.726-36.088l43.857-6.373c6.891-1.001 12.848-5.329 15.93-11.574l19.613-39.741c7.76-15.725 30.184-15.725 37.945 0z" fill="#fee45a"/></g><g><path d="m465.906 144.85c-4.984 4.865-7.253 11.869-6.079 18.733l7.491 43.675c2.965 17.281-15.182 30.463-30.702 22.305l-2.268-1.194c7.849-4.129 13.152-12.904 11.411-23.041l-7.73-45.098c-1.214-7.083 1.134-14.316 6.278-19.34l32.771-31.935c9.939-9.68 8.059-24.872-1.433-32.612l10.277 1.492c17.351 2.517 24.285 23.847 11.719 36.084z" fill="#fed402"/></g><g><path d="m385.565 329.405h-64.015c-15.291 0-27.686-12.396-27.686-27.686 0-15.291 12.396-27.686 27.686-27.686h64.015c15.291 0 27.686 12.396 27.686 27.686 0 15.291-12.396 27.686-27.686 27.686z" fill="#f6a96c"/></g><g><path d="m385.565 440.152h-64.015c-15.291 0-27.686-12.396-27.686-27.686 0-15.291 12.396-27.686 27.686-27.686h64.015c15.291 0 27.686 12.396 27.686 27.686 0 15.291-12.396 27.686-27.686 27.686z" fill="#f6a96c"/></g><g><path d="m369.752 495.525h-64.015c-15.291 0-27.686-12.396-27.686-27.686 0-15.291 12.396-27.686 27.686-27.686h64.015c15.291 0 27.686 12.396 27.686 27.686 0 15.29-12.395 27.686-27.686 27.686z" fill="#f6a96c"/></g><g><path d="m398.568 384.78h-64.015c-15.291 0-27.686-12.396-27.686-27.686 0-15.291 12.396-27.686 27.686-27.686h64.015c15.291 0 27.686 12.396 27.686 27.686 0 15.29-12.395 27.686-27.686 27.686z" fill="#f6a96c"/></g><g><path d="m413.247 301.721c0 3.502-.657 6.865-1.851 9.949-3.989-10.376-14.047-17.739-25.827-17.739h-64.02c-7.651 0-14.565 3.094-19.579 8.108-2.706 2.716-4.855 5.989-6.258 9.63-1.194-3.084-1.851-6.447-1.851-9.949 0-7.641 3.104-14.565 8.108-19.579 5.014-5.014 11.928-8.108 19.579-8.108h64.02c15.283.001 27.679 12.397 27.679 27.688z" fill="#ea9b58"/></g><g><path d="m413.247 412.47c0 3.502-.657 6.865-1.851 9.949-3.989-10.377-14.047-17.739-25.827-17.739h-64.02c-7.651 0-14.565 3.094-19.579 8.108-2.706 2.716-4.855 5.989-6.258 9.63-1.194-3.084-1.851-6.447-1.851-9.949 0-7.641 3.104-14.565 8.108-19.579 5.014-5.014 11.928-8.108 19.579-8.108h64.02c15.283.001 27.679 12.397 27.679 27.688z" fill="#ea9b58"/></g><g><path d="m397.439 467.835c0 3.512-.647 6.865-1.851 9.949-3.989-10.377-14.058-17.739-25.837-17.739h-64.01c-7.641 0-14.565 3.104-19.579 8.108-2.716 2.716-4.865 5.979-6.258 9.63-1.204-3.084-1.85-6.437-1.85-9.949 0-7.651 3.094-14.565 8.108-19.579 5.014-5.004 11.938-8.108 19.579-8.108h64.01c15.291.001 27.688 12.397 27.688 27.688z" fill="#ea9b58"/></g><g><path d="m426.25 357.096c0 3.502-.647 6.865-1.851 9.949-3.989-10.377-14.047-17.739-25.827-17.739h-64.02c-7.641 0-14.565 3.094-19.579 8.108-2.716 2.716-4.865 5.989-6.258 9.63-1.204-3.084-1.85-6.447-1.85-9.949 0-7.641 3.094-14.565 8.108-19.579s11.938-8.108 19.579-8.108h64.02c15.292 0 27.678 12.397 27.678 27.688z" fill="#ea9b58"/></g><g><path d="m502.881 119.289c7.868-7.67 10.646-18.927 7.251-29.377s-12.26-17.923-23.134-19.503l-43.856-6.373c-4.449-.647-8.293-3.44-10.283-7.471l-19.613-39.741c-4.863-9.854-14.71-15.975-25.697-15.975-10.988 0-20.835 6.121-25.698 15.975l-19.613 39.741c-1.99 4.031-5.834 6.824-10.283 7.471l-43.856 6.373c-10.874 1.58-19.739 9.053-23.135 19.504-3.396 10.45-.616 21.707 7.252 29.376l31.735 30.934c3.22 3.138 4.688 7.657 3.928 12.089l-7.491 43.679c-1.858 10.83 2.51 21.57 11.399 28.029 5.024 3.65 10.9 5.504 16.818 5.504 4.554 0 9.133-1.099 13.362-3.322l39.227-20.623c3.98-2.092 8.731-2.092 12.71 0l39.227 20.623c9.726 5.113 21.288 4.277 30.18-2.181 8.89-6.458 13.258-17.199 11.401-28.028l-1.433-8.36c-.701-4.083-4.581-6.829-8.659-6.125-4.083.7-6.825 4.576-6.126 8.659l1.433 8.361c.899 5.24-1.132 10.233-5.434 13.358-4.3 3.125-9.678 3.514-14.382 1.039l-39.227-20.622c-8.351-4.391-18.32-4.392-26.671 0l-39.227 20.623c-4.704 2.475-10.081 2.086-14.383-1.04-4.301-3.125-6.332-8.118-5.434-13.358l7.491-43.678c1.596-9.298-1.484-18.781-8.24-25.366l-31.735-30.934c-3.807-3.71-5.099-8.944-3.456-14s5.764-8.531 11.024-9.295l43.856-6.373c9.336-1.356 17.402-7.217 21.578-15.676l19.613-39.741c2.353-4.767 6.931-7.613 12.247-7.613 5.315 0 9.894 2.846 12.246 7.613l19.613 39.741c4.176 8.459 12.242 14.32 21.578 15.676l43.856 6.373c5.26.765 9.382 4.239 11.024 9.294 1.643 5.056.351 10.29-3.456 14l-31.735 30.934c-6.756 6.585-9.836 16.068-8.241 25.365l.249 1.453c.7 4.083 4.577 6.826 8.66 6.125 4.082-.7 6.824-4.577 6.125-8.659l-.25-1.454c-.76-4.431.708-8.95 3.928-12.088z"/><path d="m412.21 324.66c5.316-6.165 8.541-14.181 8.541-22.942 0-19.402-15.784-35.186-35.187-35.186l-114.15-.138c-.016-.045-1.279-3.709-2.081-5.423-.004-.009-.009-.02-.013-.029-1.734-3.703-2.379-7.747-1.863-11.695 1.673-12.805 2.087-26.102 2.42-36.785.857-27.403-4.612-47.417-16.721-61.188-12.167-13.837-29.66-21.748-48.055-21.748-.138 0-.277 0-.416.001-10.334.067-18.742 8.617-18.742 19.06v33.313c0 21.197-3.432 50.692-19.78 70.83-17.343 21.363-32.32 21.178-57.122 20.873-.851-.01-1.71-.021-2.577-.03v-9.001c0-14.927-12.145-27.071-27.071-27.071h-52.322c-14.926-.001-27.071 12.143-27.071 27.07v75.313c0 4.142 3.357 7.5 7.5 7.5s7.5-3.358 7.5-7.5v-75.313c0-6.656 5.415-12.071 12.071-12.071h52.321c6.656 0 12.071 5.415 12.071 12.071v219.064c0 6.656-5.415 12.071-12.071 12.071h-52.321c-6.656 0-12.071-5.415-12.071-12.071v-109.532c0-4.142-3.357-7.5-7.5-7.5s-7.5 3.358-7.5 7.5v109.532c0 14.927 12.145 27.071 27.071 27.071h52.321c14.927 0 27.071-12.144 27.071-27.071v-11.327h10.14c4.905 0 9.762 1.714 13.673 4.828 1.011.804 2.188 1.81 3.553 2.975 9.379 8.007 26.835 22.912 51.823 22.912l184.1.002c19.402 0 35.187-15.784 35.187-35.186 0-8.38-2.949-16.081-7.858-22.131 13.762-4.781 23.671-17.872 23.671-33.241 0-8.759-3.225-16.775-8.54-22.94 12.646-5.339 21.543-17.866 21.543-32.432 0-14.568-8.899-27.095-21.545-32.435zm-90.66-43.127h64.015c11.131 0 20.187 9.056 20.187 20.186 0 11.131-9.056 20.187-20.187 20.187h-64.015c-11.131 0-20.187-9.056-20.187-20.187s9.056-20.186 20.187-20.186zm-44.608 206.49h-91.289c-19.456 0-33.072-11.626-42.083-19.319-1.408-1.203-2.738-2.338-3.952-3.304-6.556-5.218-14.729-8.091-23.014-8.091h-10.14v-168.736c.805.009 1.603.019 2.393.029 26.275.318 47.036.579 68.953-26.418 10.554-13 23.134-37.481 23.134-80.284v-33.312c0-2.225 1.723-4.046 3.84-4.06.101-.001.2-.001.301-.001 13.886 0 27.626 6.211 36.808 16.653 9.476 10.776 13.726 27.398 12.993 50.815-.323 10.354-.725 23.241-2.301 35.311-.887 6.787.203 13.703 3.151 19.998.015.031.033.074.049.111.025.055.047.105.078.177.005.011.01.024.016.037 2.398 5.626 4.223 11.753 4.507 17.914.354 7.677-1.191 15.405-4.614 23.015-.069.157-7.165 15.796-26.712 24.47-3.786 1.68-5.493 6.111-3.814 9.897 5.808 13.096 27.373-6.591 32.695-12.107 4.513-4.678 8.877-10.152 11.53-16.15 4.378-9.732 6.363-19.764 5.899-29.814-.051-1.117-.154-2.278-.291-3.458h17.775c-4.081 5.745-6.49 12.756-6.49 20.324 0 14.567 8.898 27.094 21.545 32.433-5.316 6.165-8.541 14.181-8.541 22.942 0 8.759 3.225 16.775 8.539 22.94-12.646 5.339-21.543 17.866-21.543 32.432 0 8.38 2.949 16.082 7.858 22.132-13.762 4.781-23.671 17.872-23.671 33.241 0 7.505 2.37 14.464 6.391 20.183zm92.81.002-64.053-.002c-11.113-.021-20.148-9.066-20.148-20.184 0-11.131 9.056-20.186 20.187-20.186h64.015c11.131 0 20.187 9.055 20.187 20.186s-9.057 20.186-20.188 20.186zm15.812-55.373h-64.014c-11.131 0-20.187-9.056-20.187-20.187 0-11.13 9.056-20.186 20.187-20.186h64.015c11.131 0 20.187 9.056 20.187 20.186-.001 11.132-9.057 20.187-20.188 20.187zm13.004-55.372h-64.015c-11.131 0-20.187-9.056-20.187-20.186 0-11.131 9.056-20.187 20.187-20.187h64.015c11.131 0 20.187 9.056 20.187 20.187 0 11.13-9.056 20.186-20.187 20.186z"/></g></g></svg>